<?xml version="1.0" encoding="utf-8"?>
<!-- Generator: Adobe Illustrator 18.0.0, SVG Export Plug-In . SVG Version: 6.00 Build 0)  -->
<!DOCTYPE svg PUBLIC "-//W3C//DTD SVG 1.1//EN" "http://www.w3.org/Graphics/SVG/1.1/DTD/svg11.dtd">
<svg version="1.1" id="Layer_1" xmlns="http://www.w3.org/2000/svg" xmlns:xlink="http://www.w3.org/1999/xlink" x="0px" y="0px"
	 width="50px" height="800px" viewBox="0 0 50 800" enable-background="new 0 0 50 800" xml:space="preserve">
<g id="facebook">
	<g>
		<path d="M45,42.7c0,1.3-1,2.3-2.3,2.3H7.3C6,45,5,44,5,42.7V7.3C5,6,6,5,7.3,5h35.4C44,5,45,6,45,7.3V42.7z"/>
		<rect x="7.9" y="36.4" fill="#AFAFB2" width="34.3" height="5.7"/>
		<path fill="#FFFFFF" d="M27.9,42.1V27.4H24v-5.3h3.9c0,0,0-2.2,0-4.5c0-3.6,2.3-6.8,7.6-6.8c2.1,0,3.7,0.2,3.7,0.2L39,16
			c0,0-1.6,0-3.4,0c-1.9,0-2.2,0.9-2.2,2.3c0,1.2,0-2.5,0,3.9h5.7L39,27.4h-5.5v14.7H27.9z"/>
	</g>
</g>
<g id="twitter">
	<g>
		<g>
			<g>
				<g>
					<defs>
						<path id="SVGID_1_" d="M45,92.7c0,1.3-1,2.3-2.3,2.3H7.3C6,95,5,94,5,92.7V57.3C5,56,6,55,7.3,55h35.4c1.3,0,2.3,1,2.3,2.3
							V92.7z"/>
					</defs>
					<clipPath id="SVGID_2_">
						<use xlink:href="#SVGID_1_"  overflow="visible"/>
					</clipPath>
					<rect x="5" y="55" clip-path="url(#SVGID_2_)" width="40" height="40"/>
				</g>
			</g>
		</g>
		<path fill="#FFFFFF" d="M38.3,66.7c-1,0.4-2,0.7-3.1,0.9c1.1-0.7,2-1.7,2.4-3c-1.1,0.6-2.2,1.1-3.5,1.3c-1-1.1-2.4-1.7-4-1.7
			c-3,0-5.5,2.4-5.5,5.5c0,0.4,0,0.8,0.1,1.2c-4.5-0.2-8.6-2.4-11.3-5.7c-0.5,0.8-0.7,1.7-0.7,2.8c0,1.9,1,3.6,2.4,4.6
			c-0.9,0-1.7-0.3-2.5-0.7c0,0,0,0,0,0.1c0,2.7,1.9,4.9,4.4,5.4c-0.5,0.1-0.9,0.2-1.4,0.2c-0.4,0-0.7,0-1-0.1
			c0.7,2.2,2.7,3.8,5.1,3.8c-1.9,1.5-4.2,2.3-6.8,2.3c-0.4,0-0.9,0-1.3-0.1C14,85.1,16.9,86,20,86c10.1,0,15.6-8.3,15.6-15.6
			c0-0.2,0-0.5,0-0.7C36.7,68.8,37.6,67.8,38.3,66.7z"/>
	</g>
</g>
<g id="googlePlus">
	<g>
		<g>
			<g>
				<g>
					<defs>
						<path id="SVGID_3_" d="M45,142.7c0,1.3-1,2.3-2.3,2.3H7.3C6,145,5,144,5,142.7v-35.4c0-1.3,1-2.3,2.3-2.3h35.4
							c1.3,0,2.3,1,2.3,2.3V142.7z"/>
					</defs>
					<clipPath id="SVGID_4_">
						<use xlink:href="#SVGID_3_"  overflow="visible"/>
					</clipPath>
					<rect x="5" y="105" clip-path="url(#SVGID_4_)" width="40" height="40"/>
				</g>
			</g>
		</g>
		<path fill="#FFFFFF" d="M26.1,127.2c-3-2.2-3.8-3.5-0.9-5.7c1.6-1.3,2.8-3,2.8-5.1c0-2.3-0.9-4.3-2.7-5.4h2.5l2.1-2.1
			c0,0-7.9,0-9.4,0c-5.9,0-8.8,3.5-8.8,7.4c0,4,2.7,7.1,8,7.1c-0.8,1.7-0.5,3.2,0.9,4.3c-9.1,0-11,4-11,7.1c0,4,4.6,6.3,10.1,6.3
			c7.5,0,10.5-4,10.5-7.2C30.1,131.2,29.1,129.4,26.1,127.2z M15.3,116.2c-0.4-3.3,1.3-5.9,3.8-5.8s4.7,2.8,5.2,6.2
			c0.4,3.3-1,5.5-3.6,5.4C18.1,121.9,15.7,119.6,15.3,116.2z M19.7,139.3c-3.8,0-6.5-2.4-6.5-5.3c0-2.8,3.2-5.3,7-5.2
			c4.2,0,6.7,2.6,6.7,5.4C26.9,137.1,24.5,139.3,19.7,139.3z M36.7,122.2v-3.6h-2.2v3.6h-3.6v2.2h3.6v3.7h2.2v-3.7h3.7v-2.2H36.7z"
			/>
	</g>
</g>
<g id="instagram">
	<g>
		<path d="M40.4,171.9h-3.5c0.3,1,0.4,2,0.4,3.1c0,6.8-5.5,12.3-12.3,12.3s-12.3-5.5-12.3-12.3c0-1.1,0.2-2.1,0.4-3.1H9.6v16.9
			c0,0.8,0.7,1.5,1.5,1.5h27.7c0.9,0,1.5-0.7,1.5-1.5L40.4,171.9L40.4,171.9z M40.4,161.2c0-0.8-0.7-1.5-1.5-1.5h-4.6
			c-0.8,0-1.5,0.7-1.5,1.5v4.6c0,0.8,0.7,1.5,1.5,1.5h4.6c0.9,0,1.5-0.7,1.5-1.5V161.2z M25,167.3c-4.2,0-7.7,3.4-7.7,7.7
			c0,4.2,3.4,7.7,7.7,7.7s7.7-3.4,7.7-7.7C32.7,170.8,29.2,167.3,25,167.3 M40.4,195H9.6c-2.5,0-4.6-2.1-4.6-4.6v-30.8
			c0-2.5,2.1-4.6,4.6-4.6h30.8c2.5,0,4.6,2.1,4.6,4.6v30.8C45,192.9,42.9,195,40.4,195"/>
	</g>
</g>
<g id="pinterest">
	<g>
		<path d="M25,205c-11,0-20,9-20,20c0,8.2,4.9,15.2,12,18.3c-0.1-1.4,0-3.1,0.3-4.6c0.4-1.6,2.6-10.9,2.6-10.9s-0.6-1.3-0.6-3.2
			c0-3,1.7-5.2,3.9-5.2c1.8,0,2.7,1.4,2.7,3c0,1.8-1.2,4.6-1.8,7.1c-0.5,2.1,1.1,3.9,3.2,3.9c3.8,0,6.3-4.9,6.3-10.6
			c0-4.4-3-7.7-8.3-7.7c-6.1,0-9.8,4.5-9.8,9.6c0,1.7,0.5,3,1.3,3.9c0.4,0.4,0.4,0.6,0.3,1.1c-0.1,0.4-0.3,1.3-0.4,1.6
			c-0.1,0.5-0.5,0.7-1,0.5c-2.8-1.1-4.1-4.2-4.1-7.6c0-5.7,4.8-12.5,14.3-12.5c7.6,0,12.7,5.5,12.7,11.5c0,7.8-4.4,13.7-10.8,13.7
			c-2.2,0-4.2-1.2-4.9-2.5c0,0-1.2,4.6-1.4,5.5c-0.4,1.5-1.3,3.1-2,4.3c1.8,0.5,3.7,0.8,5.7,0.8c11,0,20-9,20-20
			C45,214,36,205,25,205z"/>
	</g>
</g>
<g id="linkedIn">
	<g>
		<path d="M45,292.7c0,1.3-1,2.3-2.3,2.3H7.3C6,295,5,294,5,292.7v-35.4c0-1.3,1-2.3,2.3-2.3h35.4c1.3,0,2.3,1,2.3,2.3V292.7z"/>
		<g>
			<path fill="#FFFFFF" d="M17.7,287.8v-17.2H12v17.2H17.7L17.7,287.8z M14.8,268.2c2,0,3.2-1.3,3.2-3s-1.2-3-3.2-3s-3.2,1.3-3.2,3
				C11.6,266.9,12.9,268.2,14.8,268.2L14.8,268.2L14.8,268.2z"/>
			<path fill="#FFFFFF" d="M20.9,287.8h5.7v-9.6c0-0.5,0-1,0.2-1.4c0.4-1,1.4-2.1,2.9-2.1c2.1,0,2.9,1.6,2.9,3.9v9.2h5.7v-9.9
				c0-5.3-2.8-7.8-6.6-7.8c-3.1,0-4.4,1.7-5.2,2.9l0,0v-2.5h-5.7C21,272.2,20.9,287.8,20.9,287.8L20.9,287.8z"/>
		</g>
	</g>
</g>
<g id="youTube">
	<g>
		<g>
			<path d="M24.6,319.3c0.6,0,0.8-0.4,0.8-1.3v-4.1c0-0.9-0.3-1.3-0.8-1.3c-0.6,0-0.8,0.4-0.8,1.3v4.1
				C23.8,318.9,24,319.3,24.6,319.3z"/>
			<path d="M41.1,305.2H9c-2.2,0-3.9,1.8-3.9,3.9v31.8c0,2.2,1.8,3.9,3.9,3.9h32c2.2,0,3.9-1.8,3.9-3.9v-31.8
				C45,306.9,43.2,305.2,41.1,305.2z M28.6,311.1h1.7v7.1c0,0.4,0,0.6,0,0.7c0,0.3,0.2,0.4,0.4,0.4c0.3,0,0.7-0.3,1.1-0.8v-7.4h1.7
				v9.6h-1.7v-1.1c-0.7,0.8-1.4,1.2-2,1.2s-1-0.2-1.1-0.7c-0.1-0.3-0.2-0.8-0.2-1.4v-7.6L28.6,311.1L28.6,311.1z M22,314.3
				c0-1,0.2-1.8,0.5-2.3c0.5-0.7,1.2-1,2-1c0.9,0,1.6,0.3,2,1c0.4,0.5,0.5,1.2,0.5,2.3v3.4c0,1-0.2,1.8-0.5,2.3c-0.5,0.7-1.2,1-2,1
				c-0.9,0-1.6-0.3-2-1c-0.4-0.5-0.5-1.2-0.5-2.3V314.3z M17.3,307.8l1.4,5.1l1.3-5.1h2l-2.3,7.7v5.2h-1.9v-5.2
				c-0.2-0.9-0.6-2.3-1.2-4.1c-0.4-1.2-0.8-2.4-1.2-3.6H17.3z M38.8,339.1c-0.3,1.5-1.6,2.6-3.1,2.8c-3.6,0.4-7.1,0.4-10.7,0.4
				s-7.2,0-10.7-0.4c-1.5-0.2-2.7-1.3-3.1-2.8c-0.5-2.2-0.5-4.5-0.5-6.8c0-2.2,0-4.6,0.5-6.8c0.3-1.5,1.6-2.6,3.1-2.8
				c3.5-0.4,7.1-0.4,10.7-0.4s7.2,0,10.7,0.4c1.5,0.2,2.7,1.3,3.1,2.8c0.5,2.2,0.5,4.5,0.5,6.8C39.3,334.5,39.3,336.9,38.8,339.1z"
				/>
		</g>
		<path d="M18.9,327.5v-1.8h-6v1.8h2v11h1.9v-11H18.9z M22.3,338.5v-1c-0.7,0.8-1.3,1.2-2,1.2c-0.6,0-0.9-0.2-1.1-0.7
			c-0.1-0.3-0.2-0.7-0.2-1.4V329h1.7v7c0,0.4,0,0.6,0,0.7c0,0.3,0.2,0.4,0.4,0.4c0.3,0,0.7-0.3,1.1-0.8V329h1.7v9.5H22.3L22.3,338.5
			z M28.9,335.8c0,0.9-0.3,1.3-0.8,1.3c-0.3,0-0.6-0.1-0.9-0.4v-5.8c0.3-0.3,0.6-0.4,0.9-0.4c0.5,0,0.8,0.4,0.8,1.3V335.8z
			 M30.7,335.6v-3.8c0-0.9-0.1-1.5-0.2-1.9c-0.2-0.7-0.7-1.1-1.4-1.1c-0.6,0-1.2,0.3-1.8,1v-4.2h-1.7v12.8h1.7v-0.9
			c0.6,0.7,1.2,1.1,1.8,1.1c0.7,0,1.2-0.4,1.4-1.1C30.6,337.1,30.7,336.5,30.7,335.6z M35.5,332.6h-1.7v-0.9c0-0.9,0.3-1.3,0.9-1.3
			c0.6,0,0.9,0.4,0.9,1.3v0.9H35.5z M37.2,335.4v-0.3h-1.8c0,0.7,0,1.1,0,1.2c-0.1,0.5-0.3,0.7-0.8,0.7c-0.6,0-0.9-0.4-0.9-1.3V334
			h3.5v-2c0-1-0.2-1.8-0.5-2.2c-0.5-0.7-1.2-1-2-1c-0.9,0-1.6,0.3-2.1,1c-0.4,0.5-0.5,1.2-0.5,2.2v3.3c0,1,0.2,1.8,0.6,2.2
			c0.5,0.7,1.2,1,2.1,1c0.9,0,1.6-0.3,2.1-1c0.2-0.3,0.3-0.7,0.4-1C37.2,336.4,37.2,336,37.2,335.4z"/>
	</g>
</g>
<g id="facebook-white">
	<path fill="#BFBFBF" d="M42.7,355H7.3C6,355,5,356,5,357.3v35.4c0,1.3,1,2.3,2.3,2.3h35.4c1.3,0,2.3-1,2.3-2.3v-35.4
		C45,356,44,355,42.7,355z M39,377.4h-5.5v14.7h-5.6v-14.7H24v-5.3h3.9c0,0,0-2.2,0-4.5c0-3.6,2.3-6.8,7.6-6.8
		c2.1,0,3.7,0.2,3.7,0.2l-0.2,5c0,0-1.6,0-3.4,0c-1.9,0-2.2,0.9-2.2,2.3c0,0.2,0,0.2,0,0.2c0,0.4,0,1.4,0,3.6h5.7L39,377.4z"/>
</g>
<g id="twitter-white">
	<g>
		<g>
			<g>
				<defs>
					<path id="SVGID_5_" d="M45,442.7c0,1.3-1,2.3-2.3,2.3H7.3C6,445,5,444,5,442.7v-35.4c0-1.3,1-2.3,2.3-2.3h35.4
						c1.3,0,2.3,1,2.3,2.3V442.7z"/>
				</defs>
				<clipPath id="SVGID_6_">
					<use xlink:href="#SVGID_5_"  overflow="visible"/>
				</clipPath>
				<path clip-path="url(#SVGID_6_)" fill="none" d="M45,442.7c0,1.3-1,2.3-2.3,2.3H7.3C6,445,5,444,5,442.7v-35.4
					c0-1.3,1-2.3,2.3-2.3h35.4c1.3,0,2.3,1,2.3,2.3V442.7z"/>
			</g>
		</g>
		<g>
			<g>
				<defs>
					<path id="SVGID_7_" d="M45,442.7c0,1.3-1,2.3-2.3,2.3H7.3C6,445,5,444,5,442.7v-35.4c0-1.3,1-2.3,2.3-2.3h35.4
						c1.3,0,2.3,1,2.3,2.3V442.7z"/>
				</defs>
				<clipPath id="SVGID_8_">
					<use xlink:href="#SVGID_7_"  overflow="visible"/>
				</clipPath>
				<path clip-path="url(#SVGID_8_)" fill="#BFBFBF" d="M5,405v40h40v-40H5z M35.6,419.6c0,0.2,0,0.5,0,0.7
					c0,7.2-5.5,15.6-15.6,15.6c-3.1,0-6-0.9-8.4-2.5c0.4,0.1,0.9,0.1,1.3,0.1c2.6,0,4.9-0.9,6.8-2.3c-2.4,0-4.4-1.6-5.1-3.8
					c0.3,0.1,0.7,0.1,1,0.1c0.5,0,1-0.1,1.4-0.2c-2.5-0.5-4.4-2.7-4.4-5.4c0,0,0,0,0-0.1c0.7,0.4,1.6,0.7,2.5,0.7
					c-1.5-1-2.4-2.7-2.4-4.6c0-1,0.3-1.9,0.7-2.8c2.7,3.3,6.7,5.5,11.3,5.7c-0.1-0.4-0.1-0.8-0.1-1.2c0-3,2.4-5.5,5.5-5.5
					c1.6,0,3,0.7,4,1.7c1.2-0.2,2.4-0.7,3.5-1.3c-0.4,1.3-1.3,2.3-2.4,3c1.1-0.1,2.2-0.4,3.1-0.9C37.6,417.8,36.7,418.8,35.6,419.6z
					"/>
			</g>
		</g>
	</g>
</g>
<g id="googlePlus-white">
	<g>
		<g>
			<g>
				<defs>
					<path id="SVGID_9_" d="M45,492.7c0,1.3-1,2.3-2.3,2.3H7.3C6,495,5,494,5,492.7v-35.4c0-1.3,1-2.3,2.3-2.3h35.4
						c1.3,0,2.3,1,2.3,2.3V492.7z"/>
				</defs>
				<clipPath id="SVGID_10_">
					<use xlink:href="#SVGID_9_"  overflow="visible"/>
				</clipPath>
				<path clip-path="url(#SVGID_10_)" fill="none" d="M45,492.7c0,1.3-1,2.3-2.3,2.3H7.3C6,495,5,494,5,492.7v-35.4
					c0-1.3,1-2.3,2.3-2.3h35.4c1.3,0,2.3,1,2.3,2.3V492.7z"/>
			</g>
		</g>
		<g>
			<g>
				<defs>
					<path id="SVGID_11_" d="M45,492.7c0,1.3-1,2.3-2.3,2.3H7.3C6,495,5,494,5,492.7v-35.4c0-1.3,1-2.3,2.3-2.3h35.4
						c1.3,0,2.3,1,2.3,2.3V492.7z"/>
				</defs>
				<clipPath id="SVGID_12_">
					<use xlink:href="#SVGID_11_"  overflow="visible"/>
				</clipPath>
				<g clip-path="url(#SVGID_12_)">
					<path fill="#BFBFBF" d="M5,455v40h40v-40H5z M19.6,491.1c-5.5,0-10.1-2.4-10.1-6.3c0-3.1,1.9-7.1,11-7.1
						c-1.3-1.1-1.7-2.6-0.9-4.3c-5.3,0-8-3.1-8-7.1c0-3.9,2.9-7.4,8.8-7.4c1.5,0,9.4,0,9.4,0l-2.1,2.1h-2.5c1.7,1.1,2.7,3.1,2.7,5.4
						c0,2.1-1.1,3.8-2.8,5.1c-2.9,2.3-2.2,3.5,0.9,5.7c3,2.3,4,4,4,6.7C30.1,487.1,27.1,491.1,19.6,491.1z M40.4,474.5h-3.7v3.7
						h-2.2v-3.7h-3.6v-2.2h3.6v-3.6h2.2v3.6h3.7V474.5z"/>
					<path fill="#BFBFBF" d="M20.1,478.8c-3.8,0-7,2.4-7,5.2c0,2.9,2.7,5.3,6.5,5.3c4.8,0,7.2-2.2,7.2-5.1
						C26.9,481.4,24.3,478.8,20.1,478.8z"/>
					<path fill="#BFBFBF" d="M24.2,466.6c-0.4-3.3-2.6-6.1-5.2-6.2c-2.5-0.1-4.2,2.5-3.8,5.8s2.9,5.7,5.4,5.8
						C23.2,472.1,24.7,469.9,24.2,466.6z"/>
				</g>
			</g>
		</g>
	</g>
</g>
<g id="instagram-white">
	<g>
		<path fill="#BFBFBF" d="M40.4,521.9h-3.5c0.3,1,0.4,2,0.4,3.1c0,6.8-5.5,12.3-12.3,12.3s-12.3-5.5-12.3-12.3
			c0-1.1,0.2-2.1,0.4-3.1H9.6v16.9c0,0.8,0.7,1.5,1.5,1.5h27.7c0.9,0,1.5-0.7,1.5-1.5L40.4,521.9L40.4,521.9z M40.4,511.2
			c0-0.8-0.7-1.5-1.5-1.5h-4.6c-0.8,0-1.5,0.7-1.5,1.5v4.6c0,0.8,0.7,1.5,1.5,1.5h4.6c0.9,0,1.5-0.7,1.5-1.5V511.2z M25,517.3
			c-4.2,0-7.7,3.4-7.7,7.7c0,4.2,3.4,7.7,7.7,7.7s7.7-3.4,7.7-7.7C32.7,520.8,29.2,517.3,25,517.3 M40.4,545H9.6
			c-2.5,0-4.6-2.1-4.6-4.6v-30.8c0-2.5,2.1-4.6,4.6-4.6h30.8c2.5,0,4.6,2.1,4.6,4.6v30.8C45,542.9,42.9,545,40.4,545"/>
	</g>
</g>
<g id="pinterest-white">
	<g>
		<path fill="#BFBFBF" d="M25,555c-11,0-20,9-20,20c0,8.2,4.9,15.2,12,18.3c-0.1-1.4,0-3.1,0.3-4.6c0.4-1.6,2.6-10.9,2.6-10.9
			s-0.6-1.3-0.6-3.2c0-3,1.7-5.2,3.9-5.2c1.8,0,2.7,1.4,2.7,3c0,1.8-1.2,4.6-1.8,7.1c-0.5,2.1,1.1,3.9,3.2,3.9
			c3.8,0,6.3-4.9,6.3-10.6c0-4.4-3-7.7-8.3-7.7c-6.1,0-9.8,4.5-9.8,9.6c0,1.7,0.5,3,1.3,3.9c0.4,0.4,0.4,0.6,0.3,1.1
			c-0.1,0.4-0.3,1.3-0.4,1.6c-0.1,0.5-0.5,0.7-1,0.5c-2.8-1.1-4.1-4.2-4.1-7.6c0-5.7,4.8-12.5,14.3-12.5c7.6,0,12.7,5.5,12.7,11.5
			c0,7.8-4.4,13.7-10.8,13.7c-2.2,0-4.2-1.2-4.9-2.5c0,0-1.2,4.6-1.4,5.5c-0.4,1.5-1.3,3.1-2,4.3c1.8,0.5,3.7,0.8,5.7,0.8
			c11,0,20-9,20-20C45,564,36,555,25,555z"/>
	</g>
</g>
<g id="linkedIn-white">
	<g>
		<path fill="#BFBFBF" d="M26.6,623L26.6,623L26.6,623L26.6,623z"/>
		<path fill="#BFBFBF" d="M42.7,605H7.3C6,605,5,606,5,607.3v35.4c0,1.3,1,2.3,2.3,2.3h35.4c1.3,0,2.3-1,2.3-2.3v-35.4
			C45,606,44,605,42.7,605z M17.7,637.8H12v-17.2h5.7V637.8z M14.8,618.2L14.8,618.2c-2,0-3.2-1.3-3.2-3s1.3-3,3.2-3
			c2,0,3.2,1.3,3.2,3C18.1,616.9,16.8,618.2,14.8,618.2z M38.4,637.8h-5.7v-9.2c0-2.3-0.8-3.9-2.9-3.9c-1.6,0-2.5,1.1-2.9,2.1
			c-0.2,0.4-0.2,0.9-0.2,1.4v9.6H21c0,0,0.1-15.6,0-17.2h5.7v2.4c0.8-1.2,2.1-2.8,5.2-2.8c3.8,0,6.6,2.5,6.6,7.8L38.4,637.8
			L38.4,637.8z"/>
	</g>
</g>
<g id="youTube-white">
	<g>
		<g>
			<path fill="#BFBFBF" d="M24.6,669.3c0.6,0,0.8-0.4,0.8-1.3v-4.1c0-0.9-0.3-1.3-0.8-1.3c-0.6,0-0.8,0.4-0.8,1.3v4.1
				C23.8,668.9,24,669.3,24.6,669.3z"/>
			<path fill="#BFBFBF" d="M41.1,655.2H9c-2.2,0-3.9,1.8-3.9,3.9v31.8c0,2.2,1.8,3.9,3.9,3.9h32c2.2,0,3.9-1.8,3.9-3.9v-31.8
				C45,656.9,43.2,655.2,41.1,655.2z M28.6,661.1h1.7v7.1c0,0.4,0,0.6,0,0.7c0,0.3,0.2,0.4,0.4,0.4c0.3,0,0.7-0.3,1.1-0.8v-7.4h1.7
				v9.6h-1.7v-1.1c-0.7,0.8-1.4,1.2-2,1.2s-1-0.2-1.1-0.7c-0.1-0.3-0.2-0.8-0.2-1.4v-7.6H28.6z M22,664.3c0-1,0.2-1.8,0.5-2.3
				c0.5-0.7,1.2-1,2-1c0.9,0,1.6,0.3,2,1c0.4,0.5,0.5,1.2,0.5,2.3v3.4c0,1-0.2,1.8-0.5,2.3c-0.5,0.7-1.2,1-2,1c-0.9,0-1.6-0.3-2-1
				c-0.4-0.5-0.5-1.2-0.5-2.3V664.3z M17.3,657.8l1.4,5.1l1.3-5.1h2l-2.3,7.7v5.2h-1.9v-5.2c-0.2-0.9-0.6-2.3-1.2-4.1
				c-0.4-1.2-0.8-2.4-1.2-3.6L17.3,657.8L17.3,657.8z M38.8,689.1c-0.3,1.5-1.6,2.6-3.1,2.8c-3.6,0.4-7.1,0.4-10.7,0.4
				s-7.2,0-10.7-0.4c-1.5-0.2-2.7-1.3-3.1-2.8c-0.5-2.2-0.5-4.5-0.5-6.8c0-2.2,0-4.6,0.5-6.8c0.3-1.5,1.6-2.6,3.1-2.8
				c3.5-0.4,7.1-0.4,10.7-0.4s7.2,0,10.7,0.4c1.5,0.2,2.7,1.3,3.1,2.8c0.5,2.2,0.5,4.5,0.5,6.8C39.3,684.5,39.3,686.9,38.8,689.1z"
				/>
		</g>
		<path fill="#BFBFBF" d="M18.9,677.5v-1.8h-6v1.8h2v11h1.9v-11H18.9z M22.3,688.5v-1c-0.7,0.8-1.3,1.2-2,1.2
			c-0.6,0-0.9-0.2-1.1-0.7c-0.1-0.3-0.2-0.7-0.2-1.4V679h1.7v7c0,0.4,0,0.6,0,0.7c0,0.3,0.2,0.4,0.4,0.4c0.3,0,0.7-0.3,1.1-0.8V679
			h1.7v9.5H22.3L22.3,688.5z M28.9,685.8c0,0.9-0.3,1.3-0.8,1.3c-0.3,0-0.6-0.1-0.9-0.4v-5.8c0.3-0.3,0.6-0.4,0.9-0.4
			c0.5,0,0.8,0.4,0.8,1.3V685.8z M30.7,685.6v-3.8c0-0.9-0.1-1.5-0.2-1.9c-0.2-0.7-0.7-1.1-1.4-1.1c-0.6,0-1.2,0.3-1.8,1v-4.2h-1.7
			v12.8h1.7v-0.9c0.6,0.7,1.2,1.1,1.8,1.1c0.7,0,1.2-0.4,1.4-1.1C30.6,687.1,30.7,686.5,30.7,685.6z M35.5,682.6h-1.7v-0.9
			c0-0.9,0.3-1.3,0.9-1.3c0.6,0,0.9,0.4,0.9,1.3v0.9H35.5z M37.2,685.4v-0.3h-1.8c0,0.7,0,1.1,0,1.2c-0.1,0.5-0.3,0.7-0.8,0.7
			c-0.6,0-0.9-0.4-0.9-1.3V684h3.5v-2c0-1-0.2-1.8-0.5-2.2c-0.5-0.7-1.2-1-2-1c-0.9,0-1.6,0.3-2.1,1c-0.4,0.5-0.5,1.2-0.5,2.2v3.3
			c0,1,0.2,1.8,0.6,2.2c0.5,0.7,1.2,1,2.1,1c0.9,0,1.6-0.3,2.1-1c0.2-0.3,0.3-0.7,0.4-1C37.2,686.4,37.2,686,37.2,685.4z"/>
	</g>
</g>
<g>
	<path fill="none" d="M45,742.7c0,1.3-1,2.3-2.3,2.3H7.3C6,745,5,744,5,742.7v-35.4c0-1.3,1-2.3,2.3-2.3h35.4c1.3,0,2.3,1,2.3,2.3
		V742.7z"/>
</g>
<g>
	<line fill="none" stroke="#000000" stroke-width="6" stroke-miterlimit="10" x1="5.2" y1="711.9" x2="44.8" y2="711.9"/>
	<line fill="none" stroke="#000000" stroke-width="6" stroke-miterlimit="10" x1="5.2" y1="725" x2="44.8" y2="725"/>
	<line fill="none" stroke="#000000" stroke-width="6" stroke-miterlimit="10" x1="5.2" y1="738.1" x2="44.8" y2="738.1"/>
</g>
<g>
	<path fill="none" d="M45,792.7c0,1.3-1,2.3-2.3,2.3H7.3C6,795,5,794,5,792.7v-35.4c0-1.3,1-2.3,2.3-2.3h35.4c1.3,0,2.3,1,2.3,2.3
		V792.7z"/>
</g>
<g>
	<line fill="none" stroke="#BFBFBF" stroke-width="6" stroke-miterlimit="10" x1="5.2" y1="761.9" x2="44.8" y2="761.9"/>
	<line fill="none" stroke="#BFBFBF" stroke-width="6" stroke-miterlimit="10" x1="5.2" y1="775" x2="44.8" y2="775"/>
	<line fill="none" stroke="#BFBFBF" stroke-width="6" stroke-miterlimit="10" x1="5.2" y1="788.1" x2="44.8" y2="788.1"/>
</g>
</svg>
